<svg xmlns="http://www.w3.org/2000/svg" width="54" height="41" viewBox="0 0 54 41" fill="none"><path d="M4.8 37.5C1.8 34.2 0 30.6 0 24.6C0 14.1 7.5 4.8 18 0L20.7 3.9C10.8 9.3 8.7 16.2 8.1 20.7C9.6 19.8 11.7 19.5 13.8 19.8C19.2 20.4 23.4 24.6 23.4 30.3C23.4 33 22.2 35.7 20.4 37.8C18.3 39.9 15.9 40.8 12.9 40.8C9.6 40.8 6.6 39.3 4.8 37.5ZM34.8 37.5C31.8 34.2 30 30.6 30 24.6C30 14.1 37.5 4.8 48 0L50.7 3.9C40.8 9.3 38.7 16.2 38.1 20.7C39.6 19.8 41.7 19.5 43.8 19.8C49.2 20.4 53.4 24.6 53.4 30.3C53.4 33 52.2 35.7 50.4 37.8C48.6 39.9 45.9 40.8 42.9 40.8C39.6 40.8 36.6 39.3 34.8 37.5Z" fill="#FF7738"></path></svg>