<svg xmlns="http://www.w3.org/2000/svg" width="278" height="278" viewBox="0 0 278 278" fill="none"><path d="M237.132 40.6045L155.114 89.8173L185.475 107.329L185.483 107.315L276.692 157.92C282.497 114.984 268.515 71.9107 237.132 40.6045Z" fill="#050505"></path><path d="M224.277 29.2434C189.829 2.36123 145.49 -6.05083 104.673 4.27048V100.32L134.841 82.9075L224.277 29.2434Z" fill="#050505"></path><path d="M143.272 195.058L53.8535 248.876C88.8593 276.117 133.288 283.864 173.339 273.726V177.68L143.255 195.031L143.272 195.058Z" fill="#050505"></path><path d="M88.311 9.51953C47.9162 25.3135 15.9831 60.0628 4.58105 103.442L88.3115 149.75C88.311 134.148 88.311 23.4283 88.311 9.51953Z" fill="#050505"></path><path d="M189.677 268.485C229.61 252.859 261.783 218.439 273.328 174.757L189.677 128.346V268.485Z" fill="#050505"></path><path d="M92.565 170.71L92.5333 170.767L1.25943 120.286C-4.4675 163.073 9.43399 206.155 40.9795 237.546L122.919 188.23L92.565 170.71Z" fill="#050505"></path></svg>