<svg xmlns="http://www.w3.org/2000/svg" width="36" height="36" viewBox="0 0 36 36" fill="none"><path d="M30.7119 5.25757L20.0898 11.6304L24.0219 13.898L24.0229 13.8962L35.8353 20.4493C36.5871 14.8893 34.7763 9.31155 30.7119 5.25757Z" fill="#FF7738"></path><path d="M29.0465 3.78686C24.5852 0.305766 18.8428 -0.78355 13.5566 0.553004V12.9909L17.4637 10.7361L29.0465 3.78686Z" fill="#FF7738"></path><path d="M18.5532 25.2594L6.97266 32.2286C11.5062 35.7561 17.2601 36.7593 22.4471 35.4465V23.009L18.551 25.2559L18.5532 25.2594Z" fill="#FF7738"></path><path d="M11.4336 1.23218C6.20215 3.27741 2.06652 7.77725 0.589844 13.3946L11.4337 19.3913C11.4336 17.3708 11.4336 3.03328 11.4336 1.23218Z" fill="#FF7738"></path><path d="M24.5625 34.7676C29.7342 32.7442 33.9009 28.2869 35.3961 22.6304L24.5625 16.6204V34.7676Z" fill="#FF7738"></path><path d="M11.988 22.1055L11.9839 22.1128L0.163108 15.5759C-0.578583 21.1165 1.22179 26.6955 5.30723 30.7605L15.9192 24.3743L11.988 22.1055Z" fill="#FF7738"></path></svg>