<svg width="14" height="14" viewBox="0 0 14 14" fill="none" xmlns="http://www.w3.org/2000/svg">
<path d="M4.84634 13.4785C4.89767 13.5105 5.0785 13.6005 5.26003 13.4451L12.4675 7.29144C12.5517 7.21934 12.6 7.11317 12.6 7.00001C12.6 6.88684 12.5517 6.78067 12.4675 6.70857L5.26003 0.554875C5.18163 0.487908 5.10347 0.466675 5.0358 0.466675C4.94667 0.466675 4.8755 0.503541 4.84634 0.521508C4.73317 0.591041 4.63004 0.737341 4.67927 0.939175L6.11077 6.79631C6.14343 6.92954 6.14343 7.07047 6.11077 7.20371L4.67927 13.0608C4.63004 13.2627 4.73317 13.409 4.84634 13.4785Z" fill="#E82C00"/>
<path d="M2.79999 8.39998C3.57319 8.39998 4.19999 7.77317 4.19999 6.99998C4.19999 6.22678 3.57319 5.59998 2.79999 5.59998C2.0268 5.59998 1.39999 6.22678 1.39999 6.99998C1.39999 7.77317 2.0268 8.39998 2.79999 8.39998Z" fill="#E82C00"/>
</svg>
