<svg xmlns="http://www.w3.org/2000/svg" width="61" height="43" viewBox="0 0 61 43" fill="none"><path d="M60.5711 19.9107C43.7882 -6.63689 17.2407 -6.63689 0.457716 19.9107C-0.152572 20.8261 -0.152572 22.0467 0.457716 22.9621C17.2406 49.5097 43.7882 49.5097 60.5711 22.9621C60.8763 22.0467 60.8763 20.8261 60.5711 19.9107ZM30.3619 36.6936C21.8178 36.6936 15.1046 29.9804 15.1046 21.4364C15.1046 12.8923 21.8178 6.17917 30.3619 6.17917C38.9059 6.17917 45.6191 12.8923 45.6191 21.4364C45.6191 29.9804 38.9059 36.6936 30.3619 36.6936Z" fill="white"></path><path d="M36.4642 18.3849C34.6334 18.3849 33.4128 17.1644 33.4128 15.3335C33.4128 14.4181 33.7179 13.8078 34.3282 13.1975C33.1077 12.5872 31.8871 12.2821 30.3614 12.2821C25.1739 12.2821 21.207 16.2489 21.207 21.4364C21.207 26.6238 25.1739 30.5907 30.3614 30.5907C35.5488 30.5907 39.5157 26.6238 39.5157 21.4364C39.5157 19.9107 39.2105 18.6901 38.6003 17.4695C37.99 18.0798 37.3797 18.3849 36.4642 18.3849Z" fill="white"></path></svg>