<svg xmlns="http://www.w3.org/2000/svg" width="40" height="40" viewBox="0 0 40 40" fill="none"><path d="M29.5379 24.9848C30.667 24.6966 31.4962 23.6851 31.4962 22.4737C31.4962 21.7328 31.1845 21.0741 30.6905 20.5978C31.2139 19.2981 31.5079 17.8809 31.5079 16.3931C31.5079 10.0479 26.3447 4.88477 19.9996 4.88477C13.6544 4.88477 8.49121 10.0479 8.49121 16.3931C8.49121 17.8809 8.78527 19.2981 9.30274 20.6036C8.80874 21.0741 8.50298 21.7327 8.50298 22.4737C8.50298 23.6851 9.33215 24.6966 10.4612 24.9848V25.5728C10.4612 28.125 11.455 30.5184 13.2603 32.3238C15.0598 34.1232 17.4532 35.1171 19.9995 35.1171C25.2568 35.1171 29.5379 30.8359 29.5379 25.5728L29.5379 24.9848ZM28.3618 25.5728C28.3618 30.1891 24.61 33.9409 19.9996 33.9409C17.7649 33.9409 15.6714 33.0706 14.0896 31.4887C12.5077 29.9068 11.6373 27.8074 11.6373 25.5728V17.8222C12.8076 18.5572 14.166 18.9512 15.5656 18.9512C17.6238 18.9512 19.5938 18.0809 20.9816 16.5872C22.3812 18.3749 24.504 19.4217 26.8093 19.4217C27.3385 19.4217 27.856 19.3688 28.3617 19.2629L28.3618 25.5728Z" fill="white"></path><path d="M11.371 36.2279H3.77747V28.5603C3.77747 27.7995 3.12253 27.1915 2.34571 27.2692C1.67024 27.3369 1.18188 27.9556 1.18188 28.6344V36.2279C1.18188 37.6614 2.344 38.8235 3.77747 38.8235H11.4451C12.2059 38.8235 12.8139 38.1686 12.7361 37.3918C12.6685 36.7163 12.0498 36.2279 11.371 36.2279Z" fill="white"></path><path d="M37.654 27.2692C36.8772 27.1914 36.2223 27.7994 36.2223 28.5604V36.2279H28.6287C27.9499 36.2279 27.3313 36.7164 27.2636 37.3918C27.1858 38.1686 27.7938 38.8235 28.5547 38.8235H36.2223C37.6558 38.8235 38.8178 37.6614 38.8178 36.2279V28.6344C38.8179 27.9556 38.3295 27.3369 37.654 27.2692Z" fill="white"></path><path d="M36.2223 1.17645H28.5547C27.7938 1.17645 27.1858 1.83133 27.2636 2.60816C27.3313 3.28363 27.9499 3.77198 28.6287 3.77198H36.2223V11.4396C36.2223 12.2005 36.8772 12.8085 37.654 12.7307C38.3295 12.663 38.8178 12.0444 38.8178 11.3655V3.77204C38.8179 2.33857 37.6558 1.17645 36.2223 1.17645Z" fill="white"></path><path d="M2.34577 12.7307C3.12259 12.8085 3.77753 12.2005 3.77753 11.4396V3.77204H11.3711C12.0499 3.77204 12.6685 3.28363 12.7362 2.60822C12.814 1.83134 12.206 1.17645 11.4451 1.17645H3.77747C2.344 1.17645 1.18188 2.33857 1.18188 3.77204V11.3656C1.18188 12.0444 1.6703 12.663 2.34577 12.7307Z" fill="white"></path><path d="M22.2755 29.1623C21.6691 29.769 20.8622 30.1029 20.0037 30.1029C20.0031 30.1029 20.0025 30.1029 20.002 30.1029C19.1423 30.1023 18.3331 29.7667 17.7238 29.1577C17.4941 28.928 17.122 28.928 16.8923 29.1577C16.6625 29.3874 16.6625 29.7598 16.8923 29.9892C17.7233 30.8205 18.8275 31.2785 20.0014 31.279H20.0037C21.1764 31.279 22.2784 30.8227 23.1071 29.9938C23.3368 29.7641 23.3368 29.3917 23.1071 29.1623C22.8773 28.9326 22.5052 28.9326 22.2755 29.1623Z" fill="white"></path><path d="M17.4951 24.8112C17.4951 24.1301 16.9399 23.5797 16.2589 23.5797C15.5778 23.5797 15.0273 24.1301 15.0273 24.8112C15.0273 25.4922 15.5778 26.0474 16.2589 26.0474C16.9399 26.0474 17.4951 25.4922 17.4951 24.8112Z" fill="white"></path><path d="M23.7364 23.5797C23.0553 23.5797 22.5049 24.1302 22.5049 24.8112C22.5049 25.4923 23.0553 26.0474 23.7364 26.0474C24.4175 26.0474 24.9725 25.4923 24.9725 24.8112C24.9725 24.1301 24.4175 23.5797 23.7364 23.5797Z" fill="white"></path><path d="M18.8654 21.5046C18.8654 21.1798 18.6024 20.9165 18.2774 20.9165H14.2448C13.9197 20.9165 13.6567 21.1798 13.6567 21.5046C13.6567 21.8293 13.9197 22.0926 14.2448 22.0926H18.2774C18.6024 22.0926 18.8654 21.8293 18.8654 21.5046Z" fill="white"></path><path d="M25.7552 20.9165H21.7226C21.3975 20.9165 21.1345 21.1798 21.1345 21.5046C21.1345 21.8293 21.3975 22.0926 21.7226 22.0926H25.7552C26.0802 22.0926 26.3432 21.8293 26.3432 21.5046C26.3432 21.1798 26.0802 20.9165 25.7552 20.9165Z" fill="white"></path></svg>