<svg xmlns="http://www.w3.org/2000/svg" width="40" height="40" viewBox="0 0 40 40" fill="none"><path fill-rule="evenodd" clip-rule="evenodd" d="M28.3266 24.4423L26.0704 30.4877C25.7597 31.3201 25.2744 32.0856 24.6788 31.4549C24.5016 31.2672 24.3511 31.0155 24.3792 30.739L24.8767 25.8328C24.8796 25.8039 24.8967 25.7807 24.9233 25.7691L28.2227 24.3435C28.252 24.3309 28.2841 24.3366 28.3073 24.3586C28.3304 24.3806 28.3377 24.4124 28.3266 24.4423ZM24.0481 36.8511V38.5317C24.0481 38.6143 24.1175 38.6836 24.2 38.6836H26.074C26.1566 38.6836 26.226 38.6142 26.226 38.5317V36.8511C26.226 36.8082 26.1909 36.7732 26.148 36.7732H24.1261C24.0831 36.7732 24.0481 36.8083 24.0481 36.8511ZM13.7734 36.8511V38.5317C13.7734 38.6143 13.8428 38.6836 13.9253 38.6836H15.7993C15.8819 38.6836 15.9512 38.6142 15.9512 38.5317V36.8511C15.9512 36.8082 15.9162 36.7732 15.8733 36.7732H13.8514C13.8084 36.7732 13.7734 36.8083 13.7734 36.8511ZM39.0688 11.7999C38.0192 9.27067 32.2336 10.1287 29.3618 10.714C29.3293 10.7207 29.3056 10.7456 29.3004 10.7783C29.2953 10.8111 29.3104 10.8421 29.3393 10.8583C29.6535 11.0347 29.9314 11.2691 30.1586 11.5475C30.1772 11.5703 30.2045 11.5803 30.2333 11.5749C32.0792 11.2297 33.7003 11.0668 35.0083 11.0987C38.6308 11.1871 39.1704 12.5832 36.6682 15.2011C35.9839 15.917 35.0975 16.6797 34.0392 17.4664C34.0162 17.4835 34.0049 17.5098 34.0084 17.5383C34.0118 17.5668 34.0289 17.5895 34.0554 17.6007L34.9645 17.9849C34.9911 17.9961 35.0195 17.9925 35.0424 17.9749C35.974 17.2584 36.7672 16.5606 37.4007 15.8979C38.8929 14.3369 39.5302 12.9115 39.0688 11.7999ZM33.1522 18.1002C32.7942 17.9929 32.432 17.9444 32.07 17.9548C31.227 17.979 30.6848 18.2859 29.9764 18.6426C29.9516 18.6551 29.9242 18.6539 29.9005 18.6393C29.8768 18.6247 29.8635 18.6007 29.8635 18.5729V14.0435C29.8635 12.4771 28.5838 11.1975 27.0174 11.1975H12.982C11.4156 11.1975 10.136 12.4771 10.136 14.0435V27.719C10.136 27.7567 10.1099 27.7883 10.0729 27.7955C8.84749 28.0342 7.71461 28.1951 6.69893 28.2747C4.02957 28.4837 2.24717 28.1612 1.86493 27.2403C1.54781 26.4763 2.22717 25.2975 3.65709 23.8975C4.96205 22.6199 6.86797 21.2117 9.21421 19.7947C9.23829 19.7803 9.25189 19.7561 9.25189 19.728V18.7329C9.25189 18.7041 9.23757 18.6795 9.21261 18.6652C9.18765 18.651 9.15909 18.6512 9.13429 18.6659C6.51717 20.2126 4.38901 21.7665 2.94837 23.177C1.21013 24.8789 0.436206 26.4372 0.930526 27.6283C1.50229 29.006 3.64925 29.5291 6.77413 29.2843C9.17533 29.0963 12.5188 28.2485 15.6403 27.2789C15.7034 27.2593 15.7678 27.2435 15.8294 27.2199C16.8264 26.8382 14.7516 24.1979 14.2315 23.356C14.2178 23.3338 14.2159 23.3087 14.2261 23.2847C14.2364 23.2607 14.2557 23.2446 14.2812 23.239C14.3073 23.2333 14.3352 23.2357 14.368 23.2528L17.4241 24.8514C18.1033 25.2066 18.8025 25.4335 19.4859 25.0879L31.0552 19.2359C31.734 18.8927 32.4459 18.8725 33.1548 19.1753L34.9859 19.9575C35.1468 20.0262 35.1458 20.2513 34.9866 20.3177C26.9569 23.7872 18.8496 28.0576 10.1992 29.7079C10.1622 29.715 10.1359 29.7467 10.1359 29.7844V33.1787C10.1359 34.745 11.4156 36.0247 12.9819 36.0247H27.0172C28.5836 36.0247 29.8633 34.7451 29.8633 33.1787V23.6859C29.8633 23.6541 29.8812 23.6269 29.9104 23.6143L35.3864 21.2483C36.3585 20.8293 36.3564 19.4435 35.3817 19.0271L34.2692 18.5519C34.2687 18.5518 34.2683 18.5515 34.2678 18.5514L33.1589 18.1027C33.1567 18.1017 33.1546 18.101 33.1522 18.1002ZM23.2574 10.241V5.12755C23.2574 5.10602 23.2651 5.08754 23.2804 5.07234C23.2956 5.05714 23.3141 5.04955 23.3356 5.04963C23.6979 5.05083 23.9996 5.04987 24.3075 4.74203C24.4971 4.55243 24.6148 4.29035 24.6148 4.00163V2.36419C24.6148 1.78683 24.1444 1.31635 23.5671 1.31635H16.4324C15.8551 1.31635 15.3846 1.78683 15.3846 2.36419V4.00163C15.3846 4.57891 15.8551 5.04939 16.4324 5.04939H16.6641C16.7071 5.04939 16.742 5.08443 16.742 5.12731V10.2409C16.742 10.2839 16.7771 10.3188 16.82 10.3188H17.6776C17.7206 10.3188 17.7556 10.2838 17.7556 10.2409V5.12731C17.7556 5.08435 17.7906 5.04939 17.8335 5.04939H22.1657C22.2087 5.04939 22.2436 5.08443 22.2436 5.12731V10.2409C22.2436 10.2839 22.2787 10.3188 22.3216 10.3188H23.1792C23.2224 10.3189 23.2574 10.2839 23.2574 10.241ZM17.8194 19.8419C17.8183 19.8411 17.8172 19.8404 17.816 19.8397C17.0952 19.3816 17.4031 18.8483 18.2522 19.086C18.2532 19.0863 18.254 19.0865 18.2551 19.0867L25.3509 20.7876C25.3834 20.7954 25.4064 20.8215 25.4102 20.8547C25.414 20.8879 25.3974 20.9184 25.3674 20.9332L21.872 22.6703C21.8456 22.6835 21.8163 22.6811 21.7922 22.6641L17.8194 19.8419Z" fill="white"></path></svg>