<svg xmlns="http://www.w3.org/2000/svg" width="40" height="40" viewBox="0 0 40 40" fill="none"><path d="M7.89062 3.20312H5.54688C4.25242 3.20312 3.20312 4.25242 3.20312 5.54688H10.2344C10.2344 4.25242 9.18508 3.20312 7.89062 3.20312Z" fill="white"></path><path d="M35.7031 7.89062H27.8759L27.1148 5.60703C26.6354 4.16914 25.295 3.20312 23.7795 3.20312H16.2205C14.705 3.20312 13.3646 4.16914 12.8853 5.60703L12.1241 7.89062H4.29688C1.92758 7.89062 0 9.8182 0 12.1875V32.5C0 34.8693 1.92758 36.7969 4.29688 36.7969H35.7031C38.0724 36.7969 40 34.8693 40 32.5V12.1875C40 9.8182 38.0724 7.89062 35.7031 7.89062ZM3.98438 12.1875C3.98438 11.5403 4.50906 11.0156 5.15625 11.0156H7.5C8.14719 11.0156 8.67188 11.5403 8.67188 12.1875C8.67188 12.8347 8.14719 13.3594 7.5 13.3594H5.15625C4.50906 13.3594 3.98438 12.8347 3.98438 12.1875ZM20 32.8906C13.7537 32.8906 8.67188 27.8088 8.67188 21.5625C8.67188 15.3162 13.7537 10.2344 20 10.2344C26.2463 10.2344 31.3281 15.3162 31.3281 21.5625C31.3281 27.8088 26.2463 32.8906 20 32.8906ZM34.0625 13.3594C33.4153 13.3594 32.8906 12.8347 32.8906 12.1875C32.8906 11.5403 33.4153 11.0156 34.0625 11.0156C34.7097 11.0156 35.2344 11.5403 35.2344 12.1875C35.2344 12.8347 34.7097 13.3594 34.0625 13.3594Z" fill="white"></path><path d="M20 12.5781C15.046 12.5781 11.0156 16.6085 11.0156 21.5625C11.0156 26.5165 15.046 30.5469 20 30.5469C24.954 30.5469 28.9844 26.5165 28.9844 21.5625C28.9844 16.6085 24.954 12.5781 20 12.5781ZM20 27.8125C16.5538 27.8125 13.75 25.0087 13.75 21.5625C13.75 18.1163 16.5538 15.3125 20 15.3125C23.4462 15.3125 26.25 18.1163 26.25 21.5625C26.25 25.0087 23.4462 27.8125 20 27.8125Z" fill="white"></path><path d="M20 25.4688C22.1574 25.4688 23.9062 23.7199 23.9062 21.5625C23.9062 19.4051 22.1574 17.6562 20 17.6562C17.8426 17.6562 16.0938 19.4051 16.0938 21.5625C16.0938 23.7199 17.8426 25.4688 20 25.4688Z" fill="white"></path></svg>