<svg xmlns="http://www.w3.org/2000/svg" width="40" height="40" viewBox="0 0 40 40" fill="none"><g clip-path="url(#clip0_590_392)"><path fill-rule="evenodd" clip-rule="evenodd" d="M21.0121 39.9867C19.1563 39.9867 17.1122 39.8915 15.1368 39.6722C15.1678 39.4331 15.1988 39.1983 15.232 38.9636C15.4136 37.6703 15.6439 36.3836 15.8986 35.1035C16.3172 32.9797 16.8 30.867 17.3182 28.7676C17.4909 28.07 17.6681 27.3724 17.8497 26.6792C17.9006 26.4799 17.9538 26.2828 18.0047 26.0857C18.0268 26.0082 18.0468 25.9285 18.0689 25.851C18.1243 25.6716 18.0246 25.4811 17.843 25.4258C17.6637 25.3682 17.4732 25.4701 17.4156 25.6494C17.327 25.944 17.2495 26.2562 17.172 26.5552C16.9838 27.2727 16.8 27.9925 16.6228 28.7144C16.0957 30.8427 15.6085 32.9864 15.19 35.139C14.9419 36.4124 14.716 37.6946 14.5389 38.9813C14.5123 39.1828 14.4835 39.3866 14.4591 39.5903C11.4805 39.2116 8.7322 38.5339 7.13769 37.4554C6.98488 37.3514 6.88079 37.1919 6.84758 37.0103C6.81657 36.8287 6.85865 36.6427 6.96716 36.4943C8.2627 34.7138 8.64583 33.1082 9.09096 31.2501C9.23934 30.6301 9.39214 29.99 9.58703 29.3102C10.3245 26.7324 12.3309 20.4939 15.0305 18.2704C15.0327 18.2682 15.0371 18.266 15.0394 18.2638C18.1132 15.8034 16.8221 13.4293 15.4579 10.9157C14.8423 9.78408 14.262 8.71665 14.1048 7.65143C13.9121 6.34703 14.4126 5.25524 15.5908 4.40483C16.1666 3.99071 16.7911 3.78032 17.4488 3.78032C18.6137 3.78032 19.8096 4.44691 21.0121 5.7646C22.2146 4.44691 23.4105 3.78032 24.5754 3.78032C25.2331 3.78032 25.8599 3.99071 26.4334 4.40483C27.6116 5.25524 28.1121 6.34703 27.9194 7.65143C27.7622 8.71665 27.182 9.78408 26.5685 10.9157C25.2021 13.4293 23.9132 15.8034 26.9871 18.2638L26.9937 18.2704C29.6955 20.4939 31.702 26.7324 32.4394 29.3102C32.6321 29.99 32.7849 30.6301 32.9333 31.2501C33.3784 33.1082 33.7615 34.7138 35.0571 36.4921C35.1656 36.6427 35.2077 36.8287 35.1767 37.0103C35.1457 37.1919 35.0416 37.3514 34.8888 37.4554C33.292 38.5339 30.5459 39.2116 27.5651 39.5903C27.5407 39.3866 27.5142 39.1828 27.4854 38.9813C27.3104 37.6946 27.0845 36.4124 26.8365 35.139C26.4157 32.9864 25.9285 30.8427 25.4037 28.7144C25.2243 27.9925 25.0427 27.2727 24.8522 26.5552C24.7747 26.2562 24.6994 25.944 24.6086 25.6494C24.5533 25.4701 24.3628 25.3682 24.1812 25.4258C24.0018 25.4811 23.9 25.6716 23.9553 25.851C23.9797 25.9285 23.9996 26.0082 24.0195 26.0857C24.0727 26.2828 24.1236 26.4799 24.1768 26.6792C24.3584 27.3724 24.5333 28.07 24.7061 28.7676C25.2243 30.867 25.7093 32.9797 26.1278 35.1035C26.3803 36.3836 26.6106 37.6703 26.7922 38.9636C26.8254 39.1983 26.8564 39.4331 26.8874 39.6722C24.912 39.8915 22.8679 39.9867 21.0121 39.9867Z" fill="white"></path><path fill-rule="evenodd" clip-rule="evenodd" d="M17.2915 5.1423C16.915 5.1423 16.6116 4.8389 16.6116 4.46463V1.25568C16.6116 0.881418 16.915 0.578018 17.2915 0.578018C17.6657 0.578018 17.9691 0.881418 17.9691 1.25568V4.46463C17.9691 4.8389 17.6657 5.1423 17.2915 5.1423Z" fill="white"></path><path fill-rule="evenodd" clip-rule="evenodd" d="M24.7348 5.1423C24.3583 5.1423 24.0549 4.8389 24.0549 4.46463V1.25568C24.0549 0.881418 24.3583 0.578018 24.7348 0.578018C25.1091 0.578018 25.4125 0.881418 25.4125 1.25568V4.46463C25.4125 4.8389 25.1091 5.1423 24.7348 5.1423Z" fill="white"></path><path fill-rule="evenodd" clip-rule="evenodd" d="M6.28957 11.0043C6.03047 11.0043 5.79129 10.8559 5.67835 10.6212L4.21671 7.58277L1.17829 6.12114C0.943544 6.0082 0.795166 5.76902 0.795166 5.50991C0.795166 5.24859 0.943544 5.00941 1.17829 4.89647L4.21671 3.43484L5.67835 0.396415C5.79129 0.161668 6.03047 0.0132904 6.28957 0.0132904C6.5509 0.0132904 6.79007 0.161668 6.90302 0.396415L8.36465 3.43484L11.4031 4.89647C11.6378 5.00941 11.7862 5.24859 11.7862 5.50991C11.7862 5.76902 11.6378 6.0082 11.4031 6.12114L8.36465 7.58277L6.90302 10.6212C6.79007 10.8559 6.5509 11.0043 6.28957 11.0043Z" fill="white"></path><path fill-rule="evenodd" clip-rule="evenodd" d="M34.9906 18.6225C34.7293 18.6225 34.4901 18.4741 34.3772 18.2394L33.1835 15.7591L30.7054 14.5654C30.4684 14.4524 30.3201 14.2133 30.3201 13.9542C30.3201 13.6928 30.4684 13.4559 30.7054 13.3407L33.1835 12.1471L34.3772 9.66892C34.4901 9.43418 34.7293 9.28358 34.9906 9.28358C35.2498 9.28358 35.4889 9.43196 35.6019 9.66892L36.7955 12.1471L39.2759 13.3407C39.5106 13.4537 39.659 13.6928 39.659 13.9542C39.659 14.2133 39.5106 14.4524 39.2759 14.5654L36.7955 15.7591L35.6019 18.2394C35.4889 18.4741 35.2498 18.6225 34.9906 18.6225Z" fill="white"></path><path fill-rule="evenodd" clip-rule="evenodd" d="M5.01164 29.3677C4.75032 29.3677 4.51336 29.2194 4.3982 28.9846L3.20453 26.5043L0.726404 25.3106C0.491657 25.1977 0.341064 24.9585 0.341064 24.6994C0.341064 24.4381 0.491657 24.2011 0.726404 24.0859L3.20453 22.8923L4.3982 20.4141C4.51336 20.1794 4.75032 20.0288 5.01164 20.0288C5.27297 20.0288 5.50993 20.1794 5.62287 20.4141L6.81654 22.8923L9.29688 24.0859C9.53163 24.2011 9.68001 24.4381 9.68001 24.6994C9.68001 24.9585 9.53163 25.1977 9.29688 25.3106L6.81654 26.5043L5.62287 28.9846C5.50993 29.2194 5.27075 29.3677 5.01164 29.3677Z" fill="white"></path></g><defs><clipPath id="clip0_590_392"><rect width="40" height="40" fill="white"></rect></clipPath></defs></svg>