<svg xmlns="http://www.w3.org/2000/svg" width="40" height="40" viewBox="0 0 40 40" fill="none"><g clip-path="url(#clip0_590_382)"><path d="M10.3203 23.5469V23.8594C10.6094 23.875 10.8984 23.9609 11.1562 24.0938V23.875C11.875 24.0312 13.2656 24.0312 13.9844 23.875V23.9531C14.2422 23.8672 14.5234 23.8359 14.8203 23.8672V23.5469C16.9219 22.3438 18.2734 20.4922 18.625 18.0391C18.9219 17.5937 21.1328 11.5781 18.8281 10.3437C18.1719 8.33594 16.3437 6.96094 14.2109 6.89062C8.35156 6.67187 8.07031 7.96094 6.05469 6.375C5.82031 6.19531 5.46875 6.30469 5.39062 6.60156C4.89844 8.61719 4.97656 10.0625 5.63281 11.0156C4.17969 12.5078 5.27344 16.3672 6.53125 18.0703C6.89844 20.6641 8.53125 22.6484 10.3203 23.5469ZM7.5625 14.1016C7.57813 13.9453 7.69531 13.875 7.74219 13.8437C7.78906 13.8203 7.91406 13.7734 8.04688 13.875C9.64844 14.9844 11.2266 14.1797 12.7656 13.4062C13.5547 13.0078 14.3672 12.6016 15.1719 12.4375C15.3438 12.4062 15.5 12.5156 15.5469 12.6953C15.8047 13.6562 16.4141 14.4687 17.3672 15.1094C17.4688 15.1797 17.5156 15.3047 17.5 15.4375C17.3984 16.1094 17.5 16.8828 17.8047 17.8281C17.5312 19.9609 16.4688 21.5781 14.5469 22.7578C13.6484 23.3125 11.5625 23.3438 10.5859 22.7578C8.66406 21.5781 7.60156 19.9609 7.32031 17.8359C7.60156 16.7734 7.46094 15.2734 7.5625 14.1016ZM9.10156 28.0703C8.83594 27.2109 8.83594 26.3516 9.10156 25.4922C9.34375 24.7031 10.3359 24.4219 10.9609 24.9688L11.4844 25.4297C11.8594 25.25 13.0859 25.3281 13.2969 25.4219L13.8203 24.9609C14.4688 24.4062 15.4297 24.7031 15.6797 25.4766C15.9453 26.3281 15.9453 27.2031 15.6797 28.0547C15.4375 28.8281 14.4766 29.1328 13.8203 28.5781L13.2969 28.1172C12.9219 28.2969 11.6875 28.2188 11.4766 28.1172L10.9531 28.5781C10.3359 29.1406 9.34375 28.8516 9.10156 28.0703ZM16.6562 27.5469C16.7734 26.7812 16.7109 26.0078 16.4766 25.2344C16.3281 24.7812 16.0312 24.4062 15.6406 24.1641V24.0234C15.7109 23.9844 15.7734 23.9375 15.8359 23.8906C15.8984 23.8906 18.3281 23.8984 18.3828 23.8984L16.6562 27.5469ZM13.2891 29.2266L13.0781 29.0469C12.9375 29.0547 11.9219 29.0625 11.7031 29.0469C11.6562 29.0781 10.5859 30.1563 9.33594 29.5078L12.5469 36.25L15.8672 29.2344C15.1406 29.8594 14.0547 29.875 13.2891 29.2266ZM12.8125 32.3984C12.8125 32.625 12.625 32.8125 12.3984 32.8125C12.1641 32.8125 11.9844 32.625 11.9844 32.3984V32.0156C11.9844 31.7891 12.1641 31.6016 12.3984 31.6016C12.625 31.6016 12.8125 31.7891 12.8125 32.0156V32.3984ZM12.8125 30.4141C12.8125 30.6484 12.625 30.8281 12.3984 30.8281C12.1641 30.8281 11.9844 30.6484 11.9844 30.4141V30.0312C11.9844 29.8047 12.1641 29.6172 12.3984 29.6172C12.625 29.6172 12.8125 29.8047 12.8125 30.0312V30.4141ZM9.45312 24.0078C8.90625 24.2266 8.48438 24.6797 8.30469 25.25C8.14063 25.7813 8.0625 26.3047 8.07031 26.8438L6.67969 23.9062C7.16406 23.8828 7.61719 23.8984 9.28906 23.8906C9.33594 23.9297 9.39844 23.9688 9.45312 24.0078ZM18.75 39.5859C18.75 39.7344 18.7734 39.875 18.8281 40H12.9688V37.3203L19.2656 24C21.1406 24.3516 22.2031 25.4922 22.2891 25.5469C22.3516 25.7344 22.2344 25.8984 22.0859 26.0234C22.0625 26.0703 19.3984 27.9141 20.2891 31.125C19.2813 32.7812 18.75 34.6719 18.75 36.6094V39.5859ZM5.79688 24L12.125 37.3125V40H5.375V32.3984C5.375 32.1719 5.1875 31.9844 4.96094 31.9844C4.73438 31.9844 4.54688 32.1719 4.54688 32.3984V40H1.3125C1.08594 40 0.898438 39.8125 0.898438 39.5859V29.9297C0.898438 27.0391 3 24.5469 5.79688 24ZM17.0156 3.28125C17.0156 0.398437 20.4688 -1.05469 22.5312 0.890624C24.5938 -1.05469 28.0547 0.382812 28.0547 3.28125C28.0547 6.89062 22.9688 10.0703 22.7578 10.2031C22.6328 10.2812 22.4609 10.2891 22.3203 10.2031C22.0938 10.0703 17.0156 6.89062 17.0156 3.28125ZM37.4609 31.2109C37.8125 30.8203 38.2188 28.3984 36.0938 26.6875C36.0859 26.6797 35.5469 26.2891 35.5547 25.6562C35.5547 25.0078 36.1172 24.2656 37.1719 23.5078C38.5781 22.5078 39.2188 20.1797 38.8047 17.5859C37.7891 11.2812 31.7812 8.16406 26.5391 9.78125C22.9922 10.8828 20.5 13.7969 19.8906 17.5859C19.4766 20.1797 20.1094 22.5078 21.5234 23.5078C22.5781 24.2656 23.1406 25 23.1406 25.6562C23.1406 26.2891 22.6016 26.6875 22.5781 26.7031C20.1953 28.6094 21.1406 31.0625 21.1484 31.0938C21.1641 31.1406 21.1953 31.1797 21.2266 31.2109C20.1875 32.7734 19.5859 34.6328 19.5859 36.6172V39.5859C19.5859 39.8125 19.7734 40 20 40H38.6875C38.9141 40 39.1016 39.8125 39.1016 39.5859V36.6172C39.1016 34.6328 38.5 32.7656 37.4609 31.2109ZM22.9766 20.7266C22.3203 20.7266 22.0234 20.2812 22.0234 19.8594C22.0234 19.375 22.4141 18.9844 22.8984 18.9844C23.0312 18.9844 23.1641 18.9219 23.2422 18.8047C23.8203 17.9844 25.0469 16.8125 26.0391 17.0234C28.4219 17.5312 29.2578 16.4531 30.0625 15.4062C30.1016 15.375 30.6484 14.5391 31.7891 14.5391C31.8281 14.5547 33.3047 14.4609 33.8672 15.9844C34.2344 16.9766 34.7344 17.875 35.4531 18.8203C35.5312 18.9219 35.6562 18.9844 35.7812 18.9844C36.2656 18.9844 36.6562 19.375 36.6562 19.8594C36.6562 20.2734 36.3594 20.7266 35.7031 20.7266C35.5 20.7266 35.3203 20.875 35.2891 21.0781C34.6484 25.3125 30.4375 26.9922 27.2734 25.8359C25.4141 25.2031 23.7734 23.6641 23.3828 21.0703C23.3594 20.8828 23.1875 20.7266 22.9766 20.7266ZM38.2734 39.1641H35.6641C36.9297 35.5312 34.8281 33.0625 34.2656 32.8047C32.8828 32.0391 31.2187 32.1328 29.9453 32.9609C30.0781 32.6328 30.2969 32.3359 30.5781 32.1016C31 31.75 30.4766 31.1094 30.0469 31.4609C29.7656 31.6953 29.5312 31.9766 29.3438 32.2891C29.1641 31.9844 28.9297 31.6953 28.6406 31.4609C28.2109 31.1094 27.6875 31.75 28.1094 32.1016C28.3906 32.3359 28.6094 32.6328 28.7422 32.9609C27.4766 32.1328 25.8125 32.0391 24.4531 32.7891C23.4844 33.2266 21.9219 35.9375 23.0312 39.1562H20.4141V36.6094C20.4141 32.5 23.2031 28.9453 27.1875 27.9531C27.375 27.9062 27.5 27.7422 27.5 27.5469V26.7969C28.7031 27.1328 29.9766 27.1328 31.1797 26.7969V27.5625C31.1797 27.7578 31.3125 27.9219 31.4922 27.9688C35.4766 28.9609 38.2656 32.5156 38.2656 36.625L38.2734 39.1641Z" fill="white"></path></g><defs><clipPath id="clip0_590_382"><rect width="40" height="40" fill="white"></rect></clipPath></defs></svg>