<svg xmlns="http://www.w3.org/2000/svg" width="20" height="20" viewBox="0 0 20 20" fill="none"><g opacity="0.23"><path d="M6.92368 19.2551C6.99701 19.3007 7.25534 19.4294 7.51468 19.2074L17.811 10.4164C17.9313 10.3134 18.0003 10.1617 18.0003 10.0001C18.0003 9.83841 17.9313 9.68675 17.811 9.58375L7.51468 0.792748C7.40268 0.697081 7.29101 0.666748 7.19434 0.666748C7.06701 0.666748 6.96534 0.719415 6.92368 0.745081C6.76201 0.844415 6.61468 1.05341 6.68501 1.34175L8.73001 9.70908C8.77668 9.89941 8.77668 10.1007 8.73001 10.2911L6.68501 18.6584C6.61468 18.9467 6.76201 19.1557 6.92368 19.2551Z" fill="white"></path><path d="M4 12C5.10457 12 6 11.1046 6 10C6 8.89543 5.10457 8 4 8C2.89543 8 2 8.89543 2 10C2 11.1046 2.89543 12 4 12Z" fill="white"></path></g></svg>