<svg xmlns="http://www.w3.org/2000/svg" width="501" height="97" viewBox="0 0 501 97" fill="none"><path d="M82.1602 14.0664L53.7422 31.1162L64.262 37.1831L64.2646 37.1784L95.8673 54.7107C97.8787 39.8354 93.034 24.9125 82.1602 14.0664Z" fill="#FF7738"></path><path d="M77.7073 10.1314C65.7714 0.818051 50.4085 -2.09632 36.2659 1.47951V34.7561L46.7188 28.7234L77.7073 10.1314Z" fill="#FF7738"></path><path d="M49.6399 67.5784L18.6575 86.2236C30.7865 95.6613 46.1804 98.3453 60.0575 94.8331V61.5576L49.634 67.569L49.6399 67.5784Z" fill="#FF7738"></path><path d="M30.5978 3.29688C16.6015 8.76873 5.5371 20.8076 1.58643 35.8363L30.5979 51.88C30.5978 46.4745 30.5978 8.11557 30.5978 3.29688Z" fill="#FF7738"></path><path d="M65.7231 93.0172C79.5595 87.6037 90.7069 75.6787 94.7073 60.5451L65.7231 44.4658V93.0172Z" fill="#FF7738"></path><path d="M32.0726 59.1413L32.0616 59.1609L0.436376 41.6719C-1.54793 56.4954 3.26875 71.4213 14.1989 82.2969L42.5899 65.2112L32.0726 59.1413Z" fill="#FF7738"></path><path d="M479.953 70.2012C475.339 70.2012 471.319 69.2976 467.895 67.4902C464.47 65.6352 461.83 63.0431 459.975 59.7137C458.12 56.3367 457.192 52.3653 457.192 47.7992C457.192 43.2332 458.096 39.3093 459.904 36.0275C461.711 32.6981 464.28 30.1535 467.609 28.3937C470.986 26.5863 474.958 25.6826 479.524 25.6826C483.996 25.6826 487.825 26.5387 491.012 28.251C494.246 29.9633 496.719 32.4127 498.432 35.5994C500.144 38.7861 501 42.5911 501 47.0145V51.0097H468.537C469.012 54.1964 470.225 56.6221 472.176 58.2868C474.126 59.9515 476.694 60.7838 479.881 60.7838C482.402 60.7838 484.4 60.3558 485.874 59.4996C487.349 58.6435 488.395 57.3355 489.014 55.5757H500.858C499.906 60.1417 497.599 63.7327 493.937 66.3487C490.274 68.917 485.613 70.2012 479.953 70.2012ZM468.822 43.1619H489.656C489.275 40.4508 488.229 38.4294 486.517 37.0976C484.804 35.7183 482.497 35.0287 479.596 35.0287C476.694 35.0287 474.316 35.7183 472.461 37.0976C470.653 38.477 469.441 40.4984 468.822 43.1619Z" fill="white"></path><path d="M428.726 69.3468V38.2408H422.875V26.5404H434.862V34.959H437.858C439 31.9626 440.807 29.7271 443.281 28.2527C445.754 26.7782 448.537 26.041 451.628 26.041H455.267V36.3145H451.129C447.419 36.3145 444.684 37.3609 442.924 39.4537C441.212 41.5464 440.355 44.3051 440.355 47.7296V69.3468H428.726Z" fill="white"></path><path d="M388.874 70.1302C382.928 70.1302 378.362 68.5606 375.175 65.4215C371.988 62.2824 370.395 58.0017 370.395 52.5796V26.5391H382.239V50.2966C382.239 53.3882 383.023 55.7187 384.593 57.2883C386.21 58.8103 388.612 59.5713 391.799 59.5713C395.081 59.5713 397.602 58.739 399.362 57.0743C401.17 55.4096 402.073 53.0314 402.073 49.9399V26.5391H413.917V57.645H419.768V69.3454H407.781V62.3537H404.785C403.072 64.8745 400.979 66.8008 398.506 68.1326C396.08 69.4643 392.87 70.1302 388.874 70.1302Z" fill="white"></path><path d="M351.365 69.3465C348.32 69.3465 345.942 68.5855 344.23 67.0635C342.565 65.4939 341.733 63.1158 341.733 59.9291V35.8149H334.384V26.5402H341.875V13.6982H353.434V26.5402H363.351V35.8149H353.576V60.0718H364.35V69.3465H351.365Z" fill="white"></path><path d="M285.777 86.4677V38.2391H279.926V26.5387H291.913V33.5304H294.909C296.432 31.0572 298.453 29.1309 300.974 27.7516C303.543 26.3723 306.634 25.6826 310.249 25.6826C314.673 25.6826 318.407 26.6101 321.451 28.465C324.495 30.32 326.802 32.9121 328.372 36.2415C329.941 39.5709 330.726 43.471 330.726 47.9419C330.726 52.4128 329.965 56.3367 328.443 59.7137C326.921 63.0431 324.709 65.6352 321.808 67.4902C318.906 69.2976 315.386 70.2012 311.248 70.2012C308.109 70.2012 305.421 69.6305 303.186 68.489C300.95 67.2999 299.19 65.6352 297.906 63.4949H297.621V86.4677H285.777ZM308.038 59.9277C311.652 59.9277 314.364 58.8575 316.171 56.7172C317.979 54.5769 318.882 51.6518 318.882 47.9419C318.882 44.232 317.979 41.3069 316.171 39.1666C314.364 37.0263 311.652 35.9561 308.038 35.9561C304.851 35.9561 302.306 36.8598 300.403 38.6672C298.548 40.427 297.621 42.8765 297.621 46.0156V49.8682C297.621 53.0073 298.548 55.4806 300.403 57.288C302.306 59.0478 304.851 59.9277 308.038 59.9277Z" fill="white"></path><path d="M247.303 70.1299C242.261 70.1299 238.314 68.917 235.46 66.4913C232.606 64.0181 231.179 60.7838 231.179 56.7886C231.179 52.5555 232.653 49.2975 235.602 47.0145C238.551 44.7314 242.785 43.5899 248.302 43.5899H260.574V41.949C260.574 37.3355 257.815 35.0287 252.298 35.0287C247.494 35.0287 244.592 36.6934 243.593 40.0227H231.821C232.772 35.314 234.984 31.7469 238.456 29.3212C241.929 26.8955 246.542 25.6826 252.298 25.6826C258.672 25.6826 263.523 27.1095 266.853 29.9633C270.23 32.817 271.919 36.9787 271.919 42.4484V57.6447H277.484V69.3451H265.497V62.3534H262.501C261.026 64.8267 259.052 66.7529 256.579 68.1323C254.105 69.464 251.014 70.1299 247.303 70.1299ZM249.087 61.1406C251.323 61.1406 253.297 60.7363 255.009 59.9277C256.721 59.1191 258.077 58.049 259.076 56.7172C260.075 55.3379 260.574 53.7921 260.574 52.0799V51.4378H248.873C244.592 51.4378 242.452 53.0311 242.452 56.2178C242.452 57.7874 243.046 59.0002 244.235 59.8564C245.425 60.7125 247.042 61.1406 249.087 61.1406Z" fill="white"></path><path d="M180.845 69.347V38.241H174.994V26.5406H186.981V33.5323H189.977C191.642 31.0591 193.735 29.1566 196.256 27.8248C198.777 26.4455 201.916 25.7559 205.674 25.7559C211.62 25.7559 216.21 27.3968 219.444 30.6786C222.726 33.9128 224.367 38.2648 224.367 43.7345V69.347H212.523V45.9462C212.523 42.8071 211.667 40.4289 209.955 38.8118C208.29 37.1471 205.84 36.3148 202.606 36.3148C199.371 36.3148 196.898 37.1471 195.186 38.8118C193.521 40.4289 192.689 42.8071 192.689 45.9462V69.347H180.845Z" fill="white"></path><path d="M146.613 70.203C138.86 70.203 132.676 68.5145 128.062 65.1376C123.449 61.7131 120.928 56.9806 120.5 50.9401H132.914C133.342 54.0793 134.745 56.4574 137.124 58.0745C139.55 59.6441 142.879 60.4289 147.112 60.4289C150.87 60.4289 153.7 59.8343 155.603 58.6453C157.506 57.4086 158.457 55.6013 158.457 53.2231C158.457 51.3682 157.838 49.8938 156.602 48.7998C155.413 47.7059 153.462 46.8735 150.751 46.3028L138.836 43.8771C133.461 42.7356 129.442 40.8569 126.778 38.2409C124.114 35.5774 122.783 32.1291 122.783 27.896C122.783 22.5215 124.804 18.3122 128.847 15.2682C132.938 12.2242 138.479 10.7021 145.471 10.7021C152.559 10.7021 158.267 12.2955 162.595 15.4822C166.923 18.6689 169.349 23.116 169.873 28.8235H157.458C156.079 23.0209 151.869 20.1195 144.829 20.1195C141.642 20.1195 139.145 20.6903 137.338 21.8318C135.53 22.9733 134.626 24.6142 134.626 26.7545C134.626 30.0364 136.981 32.1529 141.69 33.1041L154.105 35.6725C159.717 36.814 163.808 38.7403 166.376 41.4514C168.993 44.1149 170.301 47.7297 170.301 52.2957C170.301 57.9556 168.232 62.3552 164.093 65.4943C160.003 68.6334 154.176 70.203 146.613 70.203Z" fill="white"></path></svg>