<svg xmlns="http://www.w3.org/2000/svg" width="22" height="22" viewBox="0 0 22 22" fill="none"><path d="M11.0003 8.93717C12.9171 8.93717 13.5212 4.11276 13.5212 3.66634C13.5212 2.27576 12.3909 1.14551 11.0003 1.14551C9.60974 1.14551 8.47949 2.27576 8.47949 3.66634C8.47949 4.11276 9.08358 8.93717 11.0003 8.93717Z" fill="#E82C00"></path><path d="M3.38873 9.51556C3.65915 9.67139 5.93615 10.644 7.60632 10.644C8.32223 10.644 8.92632 10.4661 9.21323 9.96839C10.1721 8.30831 6.29548 5.37223 5.90957 5.14948C4.70598 4.45464 3.1614 4.86806 2.46657 6.07256C1.77082 7.27614 2.18515 8.82073 3.38873 9.51556Z" fill="#E82C00"></path><path d="M9.21351 12.0306C8.25559 10.3715 3.77493 12.2598 3.38901 12.4835C2.18543 13.1774 1.77109 14.7229 2.46593 15.9265C2.93251 16.7341 3.78134 17.1869 4.65309 17.1869C5.08026 17.1869 5.51293 17.0778 5.90984 16.8486C6.29576 16.6259 10.1714 13.6907 9.21351 12.0306Z" fill="#E82C00"></path><path d="M11.0003 13.0625C9.08358 13.0625 8.47949 17.8869 8.47949 18.3333C8.47949 19.7239 9.60974 20.8542 11.0003 20.8542C12.3909 20.8542 13.5212 19.7239 13.5212 18.3333C13.5212 17.8869 12.9171 13.0625 11.0003 13.0625Z" fill="#E82C00"></path><path d="M18.6112 12.4838C18.2253 12.2601 13.7437 10.3708 12.7867 12.0309C11.8279 13.691 15.7045 16.6271 16.0904 16.8498C16.4864 17.0781 16.9191 17.1872 17.3472 17.1872C18.218 17.1872 19.0677 16.7353 19.5334 15.9268C20.2292 14.7232 19.8148 13.1786 18.6112 12.4838Z" fill="#E82C00"></path><path d="M12.7865 9.96816C13.0734 10.4659 13.6784 10.6447 14.3934 10.6447C16.0636 10.6447 18.3415 9.67208 18.611 9.51533C19.8146 8.82141 20.2289 7.27591 19.5341 6.07233C18.8393 4.86874 17.2947 4.45441 16.0902 5.15016C15.7043 5.37291 11.8286 8.30808 12.7865 9.96816Z" fill="#E82C00"></path></svg>