<svg xmlns="http://www.w3.org/2000/svg" width="188" height="36" viewBox="0 0 188 36" fill="none"><path d="M30.7119 5.25753L20.0898 11.6303L24.0219 13.8979L24.0229 13.8962L35.8353 20.4493C36.5871 14.8893 34.7763 9.31151 30.7119 5.25753Z" fill="#FF7738"></path><path d="M29.0465 3.78686C24.5852 0.305766 18.8428 -0.78355 13.5566 0.553004V12.9909L17.4637 10.7361L29.0465 3.78686Z" fill="#FF7738"></path><path d="M18.5532 25.2595L6.97266 32.2286C11.5062 35.7561 17.2601 36.7593 22.4471 35.4466V23.0091L18.551 25.2559L18.5532 25.2595Z" fill="#FF7738"></path><path d="M11.4327 1.23213C6.20117 3.27737 2.06554 7.7772 0.588867 13.3945L11.4327 19.3913C11.4327 17.3708 11.4327 3.03324 11.4327 1.23213Z" fill="#FF7738"></path><path d="M24.5615 34.7676C29.7332 32.7442 33.8999 28.2869 35.3952 22.6304L24.5615 16.6204V34.7676Z" fill="#FF7738"></path><path d="M11.988 22.1055L11.9839 22.1128L0.163108 15.5759C-0.578583 21.1165 1.22179 26.6955 5.30723 30.7605L15.9192 24.3743L11.988 22.1055Z" fill="#FF7738"></path><path d="M179.397 25.9767C177.672 25.9767 176.17 25.6389 174.89 24.9634C173.61 24.27 172.623 23.3011 171.93 22.0567C171.236 20.7945 170.89 19.3101 170.89 17.6034C170.89 15.8967 171.227 14.4301 171.903 13.2034C172.579 11.959 173.539 11.0079 174.783 10.3501C176.046 9.67456 177.53 9.33678 179.237 9.33678C180.908 9.33678 182.339 9.65678 183.53 10.2968C184.739 10.9368 185.664 11.8523 186.304 13.0434C186.944 14.2345 187.264 15.6567 187.264 17.3101V18.8034H175.13C175.308 19.9945 175.761 20.9012 176.49 21.5234C177.219 22.1456 178.179 22.4567 179.37 22.4567C180.313 22.4567 181.059 22.2967 181.61 21.9767C182.162 21.6567 182.553 21.1678 182.784 20.51H187.211C186.855 22.2167 185.993 23.5589 184.624 24.5367C183.255 25.4967 181.513 25.9767 179.397 25.9767ZM175.237 15.8701H183.024C182.882 14.8568 182.49 14.1012 181.85 13.6034C181.21 13.0879 180.348 12.8301 179.264 12.8301C178.179 12.8301 177.29 13.0879 176.597 13.6034C175.921 14.119 175.468 14.8745 175.237 15.8701Z" fill="white"></path><path d="M160.249 25.658V14.0314H158.062V9.65814H162.543V12.8048H163.663C164.09 11.6848 164.765 10.8492 165.69 10.2981C166.614 9.74702 167.654 9.47147 168.81 9.47147H170.17V13.3114H168.623C167.236 13.3114 166.214 13.7026 165.556 14.4848C164.916 15.267 164.596 16.2981 164.596 17.5781V25.658H160.249Z" fill="white"></path><path d="M145.352 25.9507C143.13 25.9507 141.423 25.364 140.232 24.1907C139.041 23.0174 138.445 21.4174 138.445 19.3907V9.65746H142.872V18.5374C142.872 19.693 143.166 20.5641 143.752 21.1507C144.357 21.7196 145.255 22.0041 146.446 22.0041C147.673 22.0041 148.615 21.6929 149.273 21.0707C149.948 20.4485 150.286 19.5596 150.286 18.4041V9.65746H154.713V21.2841H156.9V25.6574H152.42V23.0441H151.3C150.659 23.9863 149.877 24.7063 148.953 25.204C148.046 25.7018 146.846 25.9507 145.352 25.9507Z" fill="white"></path><path d="M131.332 25.6578C130.195 25.6578 129.306 25.3734 128.666 24.8045C128.043 24.2178 127.732 23.3289 127.732 22.1378V13.1245H124.985V9.65789H127.786V4.85792H132.106V9.65789H135.813V13.1245H132.159V22.1912H136.186V25.6578H131.332Z" fill="white"></path><path d="M106.816 32.0566V14.0301H104.629V9.65678H109.109V12.2701H110.229C110.798 11.3457 111.554 10.6257 112.496 10.1101C113.456 9.59456 114.612 9.33678 115.963 9.33678C117.616 9.33678 119.012 9.68345 120.15 10.3768C121.288 11.0701 122.15 12.039 122.737 13.2834C123.323 14.5279 123.617 15.9856 123.617 17.6567C123.617 19.3278 123.332 20.7945 122.763 22.0567C122.195 23.3011 121.368 24.27 120.283 24.9634C119.199 25.6389 117.883 25.9767 116.336 25.9767C115.163 25.9767 114.158 25.7634 113.323 25.3367C112.487 24.8922 111.829 24.27 111.349 23.47H111.243V32.0566H106.816ZM115.136 22.1367C116.487 22.1367 117.501 21.7367 118.176 20.9367C118.852 20.1367 119.19 19.0434 119.19 17.6567C119.19 16.2701 118.852 15.1767 118.176 14.3768C117.501 13.5768 116.487 13.1768 115.136 13.1768C113.945 13.1768 112.994 13.5145 112.283 14.1901C111.589 14.8479 111.243 15.7634 111.243 16.9367V18.3767C111.243 19.5501 111.589 20.4745 112.283 21.15C112.994 21.8078 113.945 22.1367 115.136 22.1367Z" fill="white"></path><path d="M92.4382 25.95C90.5536 25.95 89.078 25.4967 88.0112 24.59C86.9445 23.6656 86.4111 22.4567 86.4111 20.9634C86.4111 19.3812 86.9623 18.1634 88.0646 17.3101C89.1669 16.4567 90.7492 16.0301 92.8116 16.0301H97.3985V15.4167C97.3985 13.6923 96.3674 12.8301 94.305 12.8301C92.5093 12.8301 91.4248 13.4523 91.0514 14.6968H86.6512C87.0067 12.9368 87.8335 11.6034 89.1313 10.6968C90.4292 9.79011 92.1537 9.33678 94.305 9.33678C96.6874 9.33678 98.5008 9.87011 99.7454 10.9368C101.008 12.0034 101.639 13.559 101.639 15.6034V21.2834H103.719V25.6567H99.2387V23.0434H98.1186C97.5674 23.9678 96.8296 24.6878 95.9051 25.2034C94.9806 25.7011 93.825 25.95 92.4382 25.95ZM93.1049 22.59C93.9405 22.59 94.6783 22.4389 95.3184 22.1367C95.9584 21.8345 96.4651 21.4345 96.8385 20.9367C97.2119 20.4212 97.3985 19.8434 97.3985 19.2034V18.9634H93.0249C91.4248 18.9634 90.6247 19.5589 90.6247 20.7501C90.6247 21.3367 90.847 21.79 91.2915 22.11C91.7359 22.43 92.3404 22.59 93.1049 22.59Z" fill="white"></path><path d="M67.5931 25.6573V14.0307H65.4062V9.65743H69.8865V12.2707H71.0066C71.6289 11.3463 72.4112 10.6352 73.3534 10.1374C74.2957 9.62188 75.4691 9.3641 76.8737 9.3641C79.0961 9.3641 80.8117 9.97743 82.0207 11.2041C83.2474 12.413 83.8608 14.0396 83.8608 16.0841V25.6573H79.4338V16.9107C79.4338 15.7374 79.1138 14.8485 78.4738 14.2441C77.8515 13.6219 76.9359 13.3107 75.7269 13.3107C74.518 13.3107 73.5935 13.6219 72.9534 14.2441C72.3312 14.8485 72.02 15.7374 72.02 16.9107V25.6573H67.5931Z" fill="white"></path><path d="M54.8056 25.9773C51.9076 25.9773 49.5963 25.3462 47.8718 24.084C46.1472 22.804 45.2049 21.0351 45.0449 18.7773H49.6852C49.8452 19.9507 50.3697 20.8396 51.2587 21.444C52.1654 22.0307 53.4099 22.324 54.9923 22.324C56.3968 22.324 57.4546 22.1018 58.1658 21.6573C58.877 21.1951 59.2325 20.5196 59.2325 19.6307C59.2325 18.9373 59.0014 18.3862 58.5392 17.9774C58.0947 17.5685 57.3657 17.2574 56.3523 17.044L51.8987 16.1374C49.8897 15.7107 48.3874 15.0085 47.3917 14.0307C46.3961 13.0352 45.8983 11.7463 45.8983 10.1641C45.8983 8.15519 46.6539 6.58186 48.1651 5.44409C49.6941 4.30632 51.7654 3.73743 54.3789 3.73743C57.0279 3.73743 59.1614 4.33299 60.7793 5.52409C62.3972 6.7152 63.3039 8.37741 63.4995 10.5107H58.8592C58.3436 8.34185 56.7701 7.25741 54.1389 7.25741C52.9477 7.25741 52.0143 7.47075 51.3387 7.89741C50.6631 8.32407 50.3253 8.9374 50.3253 9.7374C50.3253 10.9641 51.2053 11.7552 52.9654 12.1107L57.6058 13.0707C59.7037 13.4974 61.2327 14.2174 62.1927 15.2307C63.1706 16.2263 63.6595 17.5774 63.6595 19.284C63.6595 21.3996 62.8861 23.044 61.3393 24.2173C59.8103 25.3906 57.6324 25.9773 54.8056 25.9773Z" fill="white"></path></svg>