<svg xmlns="http://www.w3.org/2000/svg" width="40" height="40" viewBox="0 0 40 40" fill="none"><path fill-rule="evenodd" clip-rule="evenodd" d="M31.9083 2.47953V7.13133H28.6152V2.47953H26.7901C26.4506 2.47953 26.1753 2.2043 26.1753 1.86477C26.1753 1.52531 26.4506 1.25 26.7901 1.25H33.7334C33.9624 1.25 34.1621 1.37523 34.2679 1.56102L36.0881 4.31172C36.275 4.59422 36.1977 4.97484 35.9152 5.1618C35.6327 5.34883 35.252 5.27141 35.0651 4.98891L33.4046 2.47953H31.9083ZM3.84696 31.7245C3.49493 31.6708 3.21954 31.3798 3.19469 31.0139L1.68805 8.78687C1.6425 8.11398 2.16868 7.55086 2.84305 7.55086H12.5056C13.179 7.55086 13.7049 8.11242 13.6607 8.78445L12.2011 31.0123C12.177 31.3788 11.9013 31.6707 11.5488 31.7245C8.98157 31.7245 6.4143 31.7245 3.84696 31.7245ZM4.09438 10.4811H11.2541C11.5937 10.4811 11.8689 10.2059 11.8689 9.86633C11.8689 9.5268 11.5937 9.25156 11.2541 9.25156H4.09438C3.75485 9.25156 3.47961 9.5268 3.47961 9.86633C3.47969 10.2059 3.75493 10.4811 4.09438 10.4811ZM7.6743 13.4433C6.42086 13.4433 5.40477 16.2187 5.40477 19.6422C5.40477 23.0658 6.42086 25.8411 7.6743 25.8411C8.92774 25.8411 9.94383 23.0657 9.94383 19.6422C9.94383 16.2187 8.92774 13.4433 7.6743 13.4433ZM15.8319 21.2608H21.8626C22.4704 21.2608 22.9678 21.7581 22.9678 22.366V23.8066C22.9678 24.4145 22.4705 24.9118 21.8626 24.9118H15.8319C15.224 24.9118 14.7266 24.4145 14.7266 23.8066V22.366C14.7266 21.7581 15.224 21.2608 15.8319 21.2608ZM18.8084 15.0316C19.7435 15.0316 20.5069 15.6932 20.5069 16.6524V20.0312H17.1875V16.6524C17.1875 15.7598 17.9156 15.0316 18.8084 15.0316ZM22.2261 26.1127C23.1032 26.7485 23.7389 27.4448 23.7389 28.7732V36.7962C23.7389 37.8708 22.8597 38.75 21.7852 38.75H15.9093C14.8347 38.75 13.9556 37.8708 13.9556 36.7962V28.7732C13.9556 27.4448 14.5913 26.7485 15.4684 26.1127C15.5869 26.1314 15.7083 26.1413 15.8319 26.1413H21.8625C21.9861 26.1413 22.1076 26.1314 22.2261 26.1127ZM23.7523 15.1762C22.9936 15.1762 22.3598 15.7009 22.2322 16.3877H35.5884C35.939 16.3877 36.2233 16.6629 36.2233 17.0024C36.2233 17.342 35.939 17.6172 35.5884 17.6172H22.2088V20.0573C23.3302 20.2259 24.1972 21.1995 24.1972 22.3661V23.8066C24.1972 24.4782 23.9098 25.0859 23.4519 25.5128C24.4564 26.3777 24.9684 27.4027 24.9684 28.7733V33.3675H38.3147V16.6423C38.3147 15.8348 37.6213 15.1762 36.7711 15.1762H23.7523ZM38.3147 34.5969V35.1746C38.3147 35.6591 37.8987 36.0543 37.3885 36.0543H24.9684V34.5969H38.3147ZM30.5431 21.3888C30.8469 21.8554 31.2277 22.5674 31.5994 23.2769C32.1413 24.3113 33.0195 25.725 32.9563 26.9347C32.8669 28.6413 31.5884 29.9402 30.1009 29.8358C28.6132 29.7314 27.4797 28.2632 27.569 26.5565C27.6309 25.3732 28.5398 24.2416 29.1613 23.3254C29.646 22.6106 30.1569 21.8527 30.5431 21.3888ZM25.1211 11.9076H35.4023C35.614 11.9076 35.7866 12.0802 35.7866 12.2918V13.9467H24.7369V12.2918C24.7369 12.0802 24.9095 11.9076 25.1211 11.9076ZM26.4076 8.36086H34.1159C34.3699 8.36086 34.577 8.56797 34.577 8.82195V10.6782H25.9465V8.82195C25.9465 8.56797 26.1536 8.36086 26.4076 8.36086ZM10.6588 32.9541V34.0666C10.6588 34.311 10.4588 34.5109 10.2145 34.5109H5.13407C4.88969 34.5109 4.68977 34.311 4.68977 34.0666V32.9541H10.6588Z" fill="white"></path></svg>